<?xml version="1.0"?>
<svg xmlns="http://www.w3.org/2000/svg" width="536" height="126" viewBox="6.84 4.568 267.946 63">
  <g transform="matrix(2.409564, 0, 0, 2.360008, 6.912095, 4.679902)" style="">
    <circle cx="12" cy="12" r="6.2" fill="none" stroke="#1d5b47" style="stroke-width: 1.45px; opacity: 0.9;"></circle>
    <circle cx="12" cy="12" r="9" fill="none" style="stroke-width: 1.1px; opacity: 0.6;" stroke="#2e7059"></circle>
    <circle cx="12" cy="12" r="11.2" stroke="#7aa06f" opacity="0.38" fill="none" style="stroke-width: 0.95px;"></circle>
    <path d="M 16.036 6.531 L 13.822 13.403 L 7.964 17.469 L 10.177 10.597 L 16.036 6.531 Z" fill="#1d5b47" style="transform-origin: 11.999px 11.999px;"></path>
  </g>
  <g transform="matrix(1, 0, 0, 1, 0, -1.395282)">
    <path fill="#2e7059" d="M 68.152 23.143 L 73.096 23.143 L 73.096 30.45 L 80.39 30.45 L 80.39 23.143 L 85.334 23.143 L 85.334 42.316 L 80.39 42.316 L 80.39 34.187 L 73.096 34.187 L 73.096 42.316 L 68.152 42.316 Z M 89.955 27.933 L 94.553 27.933 L 94.553 42.316 L 89.955 42.316 Z M 89.955 22.334 L 94.553 22.334 L 94.553 26.084 L 89.955 26.084 Z M 108.752 39.876 Q 107.802 41.135 106.659 41.725 Q 105.516 42.316 104.014 42.316 Q 101.381 42.316 99.66 40.242 Q 97.94 38.168 97.94 34.958 Q 97.94 31.734 99.66 29.673 Q 101.381 27.612 104.014 27.612 Q 105.516 27.612 106.659 28.203 Q 107.802 28.794 108.752 30.065 L 108.752 27.933 L 113.375 27.933 L 113.375 40.865 Q 113.375 44.332 111.186 46.162 Q 108.996 47.992 104.836 47.992 Q 103.487 47.992 102.229 47.787 Q 100.97 47.581 99.699 47.157 L 99.699 43.574 Q 100.906 44.268 102.062 44.608 Q 103.218 44.949 104.386 44.949 Q 106.646 44.949 107.699 43.96 Q 108.752 42.971 108.752 40.865 Z M 105.722 30.925 Q 104.296 30.925 103.5 31.978 Q 102.704 33.031 102.704 34.958 Q 102.704 36.935 103.474 37.956 Q 104.245 38.977 105.722 38.977 Q 107.16 38.977 107.956 37.924 Q 108.752 36.871 108.752 34.958 Q 108.752 33.031 107.956 31.978 Q 107.16 30.925 105.722 30.925 Z M 132.252 33.558 L 132.252 42.316 L 127.629 42.316 L 127.629 40.891 L 127.629 35.638 Q 127.629 33.751 127.545 33.044 Q 127.462 32.338 127.256 32.004 Q 126.987 31.555 126.524 31.304 Q 126.062 31.054 125.471 31.054 Q 124.033 31.054 123.211 32.165 Q 122.389 33.275 122.389 35.24 L 122.389 42.316 L 117.792 42.316 L 117.792 22.334 L 122.389 22.334 L 122.389 30.039 Q 123.429 28.781 124.598 28.184 Q 125.767 27.586 127.179 27.586 Q 129.671 27.586 130.961 29.115 Q 132.252 30.643 132.252 33.558 Z M 136.513 22.334 L 141.111 22.334 L 141.111 42.316 L 136.513 42.316 Z M 145.528 27.933 L 150.126 27.933 L 150.126 42.316 L 145.528 42.316 Z M 145.528 22.334 L 150.126 22.334 L 150.126 26.084 L 145.528 26.084 Z M 169.003 33.558 L 169.003 42.316 L 164.38 42.316 L 164.38 40.891 L 164.38 35.613 Q 164.38 33.751 164.297 33.044 Q 164.213 32.338 164.008 32.004 Q 163.738 31.555 163.276 31.304 Q 162.813 31.054 162.223 31.054 Q 160.784 31.054 159.962 32.165 Q 159.141 33.275 159.141 35.24 L 159.141 42.316 L 154.543 42.316 L 154.543 27.933 L 159.141 27.933 L 159.141 30.039 Q 160.181 28.781 161.349 28.184 Q 162.518 27.586 163.931 27.586 Q 166.422 27.586 167.712 29.115 Q 169.003 30.643 169.003 33.558 Z M 187.622 35.086 L 187.622 36.396 L 176.873 36.396 Q 177.04 38.014 178.042 38.823 Q 179.044 39.632 180.841 39.632 Q 182.292 39.632 183.814 39.202 Q 185.336 38.772 186.941 37.898 L 186.941 41.443 Q 185.31 42.059 183.679 42.374 Q 182.048 42.688 180.418 42.688 Q 176.514 42.688 174.35 40.704 Q 172.186 38.72 172.186 35.137 Q 172.186 31.619 174.311 29.603 Q 176.437 27.586 180.161 27.586 Q 183.551 27.586 185.586 29.628 Q 187.622 31.67 187.622 35.086 Z M 182.896 33.558 Q 182.896 32.248 182.132 31.445 Q 181.368 30.643 180.135 30.643 Q 178.8 30.643 177.965 31.394 Q 177.13 32.145 176.925 33.558 Z M 204.649 23.747 L 204.649 27.805 Q 203.069 27.098 201.567 26.739 Q 200.064 26.379 198.729 26.379 Q 196.956 26.379 196.109 26.867 Q 195.261 27.355 195.261 28.383 Q 195.261 29.153 195.833 29.583 Q 196.404 30.014 197.907 30.322 L 200.013 30.746 Q 203.21 31.388 204.559 32.697 Q 205.907 34.007 205.907 36.422 Q 205.907 39.594 204.026 41.141 Q 202.145 42.688 198.279 42.688 Q 196.456 42.688 194.619 42.342 Q 192.783 41.995 190.946 41.314 L 190.946 37.141 Q 192.783 38.117 194.497 38.611 Q 196.212 39.106 197.804 39.106 Q 199.422 39.106 200.282 38.566 Q 201.143 38.027 201.143 37.025 Q 201.143 36.126 200.559 35.638 Q 199.974 35.15 198.228 34.765 L 196.314 34.341 Q 193.438 33.725 192.109 32.376 Q 190.78 31.028 190.78 28.742 Q 190.78 25.879 192.629 24.337 Q 194.478 22.796 197.945 22.796 Q 199.525 22.796 201.194 23.034 Q 202.864 23.272 204.649 23.747 Z M 221.664 28.383 L 221.664 32.132 Q 220.726 31.49 219.782 31.182 Q 218.838 30.874 217.824 30.874 Q 215.898 30.874 214.825 31.998 Q 213.753 33.121 213.753 35.137 Q 213.753 37.154 214.825 38.277 Q 215.898 39.401 217.824 39.401 Q 218.903 39.401 219.872 39.08 Q 220.842 38.759 221.664 38.13 L 221.664 41.892 Q 220.585 42.29 219.474 42.489 Q 218.363 42.688 217.246 42.688 Q 213.355 42.688 211.159 40.692 Q 208.963 38.695 208.963 35.137 Q 208.963 31.58 211.159 29.583 Q 213.355 27.586 217.246 27.586 Q 218.376 27.586 219.474 27.786 Q 220.572 27.985 221.664 28.383 Z M 232.476 30.874 Q 230.948 30.874 230.145 31.972 Q 229.343 33.07 229.343 35.137 Q 229.343 37.205 230.145 38.303 Q 230.948 39.401 232.476 39.401 Q 233.978 39.401 234.775 38.303 Q 235.571 37.205 235.571 35.137 Q 235.571 33.07 234.775 31.972 Q 233.978 30.874 232.476 30.874 Z M 232.476 27.586 Q 236.187 27.586 238.274 29.59 Q 240.361 31.593 240.361 35.137 Q 240.361 38.682 238.274 40.685 Q 236.187 42.688 232.476 42.688 Q 228.752 42.688 226.652 40.685 Q 224.553 38.682 224.553 35.137 Q 224.553 31.593 226.652 29.59 Q 228.752 27.586 232.476 27.586 Z M 243.542 36.717 L 243.542 27.933 L 248.166 27.933 L 248.166 29.371 Q 248.166 30.54 248.153 32.306 Q 248.14 34.072 248.14 34.662 Q 248.14 36.396 248.23 37.16 Q 248.32 37.924 248.538 38.271 Q 248.82 38.72 249.276 38.964 Q 249.732 39.208 250.323 39.208 Q 251.761 39.208 252.583 38.104 Q 253.405 36.999 253.405 35.035 L 253.405 27.933 L 258.002 27.933 L 258.002 42.316 L 253.405 42.316 L 253.405 40.236 Q 252.365 41.494 251.203 42.091 Q 250.04 42.688 248.641 42.688 Q 246.149 42.688 244.846 41.16 Q 243.542 39.632 243.542 36.717 Z M 267.439 23.849 L 267.439 27.933 L 272.178 27.933 L 272.178 31.221 L 267.439 31.221 L 267.439 37.321 Q 267.439 38.322 267.837 38.675 Q 268.235 39.029 269.417 39.029 L 271.78 39.029 L 271.78 42.316 L 267.837 42.316 Q 265.115 42.316 263.978 41.18 Q 262.842 40.043 262.842 37.321 L 262.842 31.221 L 260.556 31.221 L 260.556 27.933 L 262.842 27.933 L 262.842 23.849 Z" style="fill: rgb(17, 75, 69); text-wrap-mode: nowrap;"></path>
    <g transform="matrix(1.507679, 0, 0, 1.221508, 106.111763, 44.8)" style="transform-origin: 86px -6.096px;">
      <path d="M 2 3 C 12 7.667 18.964 14.667 32 4.2 C 46.619 13.852 48.999 18.882 72 4.8 C 83.408 13.32 89.465 15.347 100 4.8 C 113.333 9.267 125.923 10.903 138.764 2.366" stroke="#7aa06f" fill="none" stroke-linecap="round" style="stroke-width: 1.8px;"></path>
      <rect x="30.4" y="1.2" width="3.4" height="6" rx="1.5" fill="#1d5b47"></rect><rect x="70.4" y="1.4" width="3.4" height="6" rx="1.5" fill="#1d5b47"></rect><rect x="98.4" y="1.4" width="3.4" height="6" rx="1.5" fill="#1d5b47"></rect><path d="M 2 3 C 58 5.667 83.387 4.729 139.387 2.062" fill="none" stroke-linecap="round" style="stroke: #1d5b47; stroke-width: 2.2px;"></path>
    </g>
  </g>
</svg>