<?xml version="1.0" encoding="utf-8"?>
<svg xmlns="http://www.w3.org/2000/svg" width="532" height="132" viewBox="0 0 266 66">
  <g transform="matrix(2.409564, 0, 0, 2.360008, 6.912095, 4.679902)" style="">
    <circle cx="12" cy="12" r="6.2" stroke="#1d5b47" stroke-width="1.6" fill="none"/>
    <circle cx="12" cy="12" r="9" stroke="#2e7059" stroke-width="1.1" opacity="0.65" fill="none"/>
    <circle cx="12" cy="12" r="11.2" stroke="#7aa06f" stroke-width="0.9" opacity="0.45" fill="none"/>
    <path d="M12 7.2 L13.6 12 L12 16.8 L10.4 12 Z" fill="#1d5b47"/>
  </g>
  <text x="156" y="38.225" font-size="22" text-anchor="middle" style="white-space: pre;"><tspan fill="#2e7059" style="font-size: 22px; word-spacing: 0px;">Highline</tspan><tspan fill="#7aa06f" style="font-size: 22px; word-spacing: 0px;">Scout</tspan></text>
  <g transform="matrix(1, 0, 0, 1, 70, 38.5)">
    <path d="M2 3 Q86 7 170 3" stroke="#2e7059" stroke-width="2" fill="none" stroke-linecap="round"/>
    <path d="M2 3 Q17 10 32 4.2 Q52 11.5 72 4.8 Q86 10.5 100 4.8 Q120 11.5 140 4.2 Q155 10 170 3" stroke="#7aa06f" stroke-width="1.5" fill="none" stroke-linecap="round"/>
    <rect x="30.6" y="2.4" width="2.8" height="4" rx="1" fill="#2e7059"/>
    <rect x="70.6" y="3" width="2.8" height="4" rx="1" fill="#2e7059"/>
    <rect x="98.6" y="3" width="2.8" height="4" rx="1" fill="#2e7059"/>
    <rect x="138.6" y="2.4" width="2.8" height="4" rx="1" fill="#2e7059"/>
  </g>
</svg>
